<svg width="18" height="18" viewBox="0 0 18 18" fill="none" xmlns="http://www.w3.org/2000/svg">
<path d="M10.7081 3.99999C11.5221 4.15879 12.2701 4.55687 12.8565 5.14327C13.4429 5.72967 13.841 6.47771 13.9998 7.29166M10.7081 0.666656C12.3992 0.85452 13.9761 1.6118 15.18 2.81416C16.3839 4.01652 17.1431 5.5925 17.3331 7.28332M7.52228 10.5525C6.52097 9.55123 5.73031 8.41903 5.15031 7.21101C5.10042 7.10711 5.07548 7.05515 5.05631 6.98941C4.98821 6.75578 5.03713 6.4689 5.17881 6.27104C5.21867 6.21536 5.2663 6.16773 5.36156 6.07247C5.6529 5.78114 5.79857 5.63547 5.89381 5.48898C6.25297 4.93658 6.25297 4.22442 5.89381 3.67202C5.79857 3.52553 5.6529 3.37987 5.36156 3.08853L5.19917 2.92614C4.7563 2.48327 4.53487 2.26183 4.29705 2.14155C3.82408 1.90232 3.26553 1.90232 2.79256 2.14155C2.55474 2.26183 2.33331 2.48327 1.89044 2.92614L1.75908 3.0575C1.31773 3.49885 1.09705 3.71953 0.928511 4.01955C0.741493 4.35248 0.607025 4.86955 0.608161 5.2514C0.609185 5.59553 0.675938 5.83071 0.809444 6.30108C1.52692 8.82891 2.88065 11.2142 4.87063 13.2042C6.86061 15.1942 9.24592 16.5479 11.7737 17.2654C12.2441 17.3989 12.4793 17.4656 12.8234 17.4667C13.2053 17.4678 13.7224 17.3333 14.0553 17.1463C14.3553 16.9778 14.576 16.7571 15.0173 16.3158L15.1487 16.1844C15.5916 15.7415 15.813 15.5201 15.9333 15.2823C16.1725 14.8093 16.1725 14.2507 15.9333 13.7778C15.813 13.54 15.5916 13.3185 15.1487 12.8757L14.9863 12.7133C14.695 12.4219 14.5493 12.2763 14.4028 12.181C13.8504 11.8219 13.1383 11.8219 12.5858 12.181C12.4394 12.2763 12.2937 12.4219 12.0024 12.7133C11.9071 12.8085 11.8595 12.8562 11.8038 12.896C11.6059 13.0377 11.319 13.0866 11.0854 13.0185C11.0197 12.9994 10.9677 12.9744 10.8638 12.9245C9.6558 12.3445 8.5236 11.5539 7.52228 10.5525Z" stroke="white" stroke-linecap="round" stroke-linejoin="round"/>
</svg>
