<svg width="54" height="70" viewBox="0 0 54 70" fill="none" xmlns="http://www.w3.org/2000/svg">
<mask id="mask0_2_2971" style="mask-type:luminance" maskUnits="userSpaceOnUse" x="0" y="0" width="54" height="70">
<path d="M54 0H0V70H54V0Z" fill="white"/>
</mask>
<g mask="url(#mask0_2_2971)">
<path d="M52.9467 3.74096C52.5393 2.88216 51.6575 2.2702 49.6823 2.07479C40.5593 1.1697 36.2892 1 26.7899 1H26.7848C17.2802 1 13.139 1.15428 3.87689 2.07479C1.89656 2.2702 1.0147 2.88216 0.607286 3.7461C0.308174 4.38378 0.266917 5.1603 0.225661 6.00368C-0.274579 16.3761 0.0296904 44.5983 1.41179 60.4784C1.57166 62.3142 1.65934 64.2633 1.92751 65.8781C2.33492 68.3208 3.35602 69.015 5.30024 69.4162C8.69361 70.1206 15.3617 70.6812 26.7692 70.6812C38.1768 70.6812 44.8604 70.1258 48.2589 69.4212C50.2031 69.0201 51.2243 68.331 51.6317 65.8832C51.8997 64.2684 51.9824 62.3194 52.1474 60.4836C53.5295 44.6035 53.8337 16.3813 53.3334 6.00882C53.2922 5.1603 53.2509 4.38378 52.9467 3.74096ZM2.6134 7.15046C2.67529 5.8751 2.47931 4.97002 3.51074 4.27064L18.554 6.97561C19.0697 6.68249 26.5526 6.67735 26.7848 6.67735C27.0168 6.67735 34.4997 6.68249 35.0154 6.97561L49.9349 4.25007C50.9715 4.94432 50.7962 5.8751 50.8581 7.15046C51.0128 10.3594 51.0849 15.3425 51.0747 21.1329L51.0695 21.2306L39.1308 22.0638C36.1655 22.3415 35.82 23.0975 35.8097 24.4602C35.8097 24.4602 35.6705 33.799 35.5878 37.08C35.4744 41.7443 35.0721 48.6969 35.067 48.9282C35.0309 50.0443 34.278 50.8619 33.2105 50.9493C33.2105 50.9493 29.4045 51.0882 26.795 51.0625C26.7744 51.0625 26.759 51.0625 26.7383 51.0625C26.7177 51.0625 26.7023 51.0625 26.6816 51.0625C24.072 51.083 20.2661 50.9493 20.2661 50.9493C19.1987 50.8567 18.4406 50.0443 18.4095 48.9282C18.4044 48.6969 18.0021 41.7443 17.8887 37.08C17.8062 33.799 17.667 24.4602 17.667 24.4602C17.6618 23.0975 17.3111 22.3415 14.3458 22.0638L2.3968 21.1175C2.38649 15.3322 2.45869 10.3543 2.6134 7.15046ZM26.7332 53.1142H26.7899L32.7411 53.0526C37.3826 53.0783 36.9236 52.6824 37.5425 48.6094C37.6971 47.5912 39.8477 24.671 39.8477 24.671C39.9198 24.1414 40.2138 23.9151 40.6316 23.8637L50.7342 22.542C50.9199 22.5163 51.0849 22.6655 51.0798 22.8557C51.0798 22.8557 50.2547 60.787 49.1871 65.3998C48.9551 66.3923 48.6972 66.6238 47.8308 66.8294C47.8308 66.8294 42.7407 68.0276 26.7435 68.0431C10.7358 68.0224 5.64577 66.8243 5.64577 66.8243C4.77938 66.6186 4.52153 66.3923 4.28945 65.3947C3.22193 60.787 2.3968 22.8557 2.3968 22.8557C2.39164 22.6706 2.55667 22.5215 2.74232 22.542L12.8451 23.8637C13.2628 23.9203 13.5568 24.1414 13.629 24.671C13.629 24.671 15.7794 47.5912 15.9342 48.6094C16.553 52.6772 16.094 53.0783 20.7354 53.0526L26.6867 53.1142H26.7332Z" fill="white"/>
<path d="M22.3128 56.3914C22.2921 56.3607 22.2561 56.34 22.2199 56.34H20.5954C20.5542 56.34 20.5233 56.3607 20.4975 56.3914L17.1195 61.3952C17.0937 61.4311 17.1195 61.4825 17.166 61.4825H18.744C18.7801 61.4825 18.8163 61.462 18.8368 61.4311L19.7083 60.1455C19.7497 60.0837 19.8219 60.0478 19.894 60.0478H22.9161C22.9935 60.0478 23.0605 60.0837 23.1018 60.1455L23.9733 61.4311C23.994 61.462 24.03 61.4825 24.0661 61.4825H25.6443C25.6906 61.4825 25.7164 61.4311 25.6906 61.3952L22.3128 56.3914ZM22.2817 59.2404H20.5335C20.4459 59.2404 20.3892 59.1427 20.4408 59.0656L21.3123 57.7696C21.3586 57.7028 21.4515 57.7028 21.498 57.7696L22.3746 59.0656C22.4211 59.1427 22.3695 59.2404 22.2817 59.2404Z" fill="white"/>
<path d="M12.8734 57.0031L8.05663 57.0031C8.01022 57.0031 7.98443 57.0546 8.01022 57.0906L8.42794 57.7129C8.4692 57.7745 8.5414 57.8106 8.61359 57.8106H11.2179C11.2798 57.8106 12.8734 56.9415 12.8734 57.0031L12.1127 61.1636C12.1127 61.1995 11.3572 62.1457 11.3933 62.1457L12.1127 61.1636C12.1488 61.1636 12.8734 62.12 12.8734 62.0841V57.9236C12.8734 57.862 12.9249 57.8106 12.9868 57.8106H15.5963C15.6737 57.8106 15.7407 57.7745 15.782 57.7129L16.1997 57.0906C16.241 57.0546 12.9197 57.0031 12.8734 57.0031Z" fill="white"/>
<path d="M35.2153 56.34H33.7972C33.7611 56.34 33.7353 56.3709 33.7353 56.4017V60.0016C33.7353 60.0478 33.6837 60.0736 33.6424 60.0478L28.9546 56.3914C28.9134 56.3607 28.8618 56.34 28.8051 56.34H27.4075C27.3714 56.34 27.3456 56.3709 27.3456 56.4017V61.4209C27.3456 61.4568 27.3714 61.4825 27.4075 61.4825H28.8258C28.8618 61.4825 28.8876 61.4568 28.8876 61.4209V57.8211C28.8876 57.7748 28.9392 57.7491 28.9804 57.7748L33.6682 61.4311C33.7095 61.462 33.7611 61.4825 33.8178 61.4825H35.2153C35.2515 61.4825 35.2773 61.4568 35.2773 61.4209V56.4017C35.2773 56.3709 35.2515 56.34 35.2153 56.34Z" fill="white"/>
<path d="M44.9991 61.4216L41.6058 58.6293C41.5749 58.6035 41.5749 58.5521 41.6109 58.5264L44.994 56.4077C45.0249 56.3923 45.0095 56.3459 44.9735 56.3459H43.2407C43.1787 56.3459 43.122 56.3614 43.0704 56.3973L39.3831 58.7064C39.3419 58.7321 39.2852 58.7012 39.2852 58.655V56.4128C39.2852 56.3768 39.2594 56.3511 39.2232 56.3511H37.805C37.769 56.3511 37.7432 56.3768 37.7432 56.4128V61.4318C37.7432 61.4679 37.7741 61.4936 37.805 61.4936H39.2232C39.2594 61.4936 39.2852 61.4679 39.2852 61.4318V60.0538C39.2852 60.0125 39.3057 59.9766 39.3419 59.9561L40.5435 59.2052C40.5848 59.1795 40.6415 59.1847 40.6775 59.2154L43.3644 61.4268C43.4211 61.4731 43.4933 61.4988 43.5707 61.4988H44.9735C45.0147 61.4833 45.0302 61.4422 44.9991 61.4216Z" fill="white"/>
</g>
</svg>
